<svg width="279" height="62" viewBox="0 0 279 62" fill="none" xmlns="http://www.w3.org/2000/svg">
<g clip-path="url(#clip0_3_599)">
<g clip-path="url(#clip1_3_599)">
<path d="M15.6562 21.9965L11.3343 33.3744H23.1753L18.9086 21.9965C18.3353 20.4383 17.7693 18.6743 17.2107 16.7044C16.8799 18.2259 16.3618 19.9899 15.6562 21.9965ZM19.085 12.0519L33.4837 48.8646H29.0847L24.5093 37.2111H9.82389L5.31463 48.8646H0.992798L15.4798 12.0519H19.085ZM53.1856 15.4807C49.1577 15.4807 45.9788 16.8257 43.6489 19.5158C41.3115 22.2133 40.1429 25.9251 40.1429 30.6512C40.1429 35.3773 41.2674 39.0486 43.5166 41.6652C45.7657 44.2745 48.9703 45.5791 53.1304 45.5791C55.7324 45.5791 58.6614 45.1234 61.9174 44.212V47.9495C59.367 48.8977 56.2248 49.3718 52.491 49.3718C47.0887 49.3718 42.9175 47.7364 39.9775 44.4656C37.0448 41.1581 35.5785 36.4945 35.5785 30.4748C35.5564 27.6817 35.9607 25.1129 36.7913 22.7682C37.6145 20.4162 38.7868 18.4207 40.3083 16.7816C41.8371 15.1499 43.7077 13.882 45.92 12.978C48.125 12.0813 50.5653 11.6403 53.2407 11.655C57.1289 11.655 60.4915 12.3606 63.3286 13.7718L61.5205 17.4321C58.7937 16.1311 56.0153 15.4807 53.1856 15.4807ZM73.8356 25.5355V48.8646H69.9106V12.1842H76.3162L87.9366 42.459H88.1351L99.8437 12.1842H106.216V48.8646H101.961V25.2268C101.961 22.4044 102.082 19.4607 102.324 16.3957H102.093L89.5573 48.8646H86.1285L73.7032 16.3737H73.5048C73.7253 18.9315 73.8356 21.9855 73.8356 25.5355ZM120.549 45.0499H136.712V48.8646H116.282V12.1842H136.712V15.9768H120.549V27.7957H135.73V31.5552H120.549V45.0499Z" fill="#f97316"/>
</g>
<g clip-path="url(#clip2_3_599)">
<path d="M157.139 34.4252H155.815V17.6483H157.139V34.4252Z" fill="#f97316"/>
<path d="M162.742 20.3072H161.417V0H162.742V20.3072Z" fill="#f97316"/>
<path d="M167.427 17.738H166.103V4.93402H167.427V17.738Z" fill="#f97316"/>
<path d="M178.38 27.4724H177.056V14.6678H178.38V27.4724Z" fill="#f97316"/>
<path d="M184.636 47.8602L179.651 38.2046C179.682 38.1624 179.704 38.1155 179.735 38.0727C180.75 36.6502 182.316 35.3204 182.316 35.3204L179.269 30.016C179.269 30.016 178.441 29.4222 176.175 29.9855C171.988 31.0248 168.457 33.8735 168.457 33.8735C168.457 33.8735 177.089 26.2897 174.135 22.6531C172.996 21.2532 168.432 23.7553 168.432 23.7553L169.492 18.9836L161.875 23.3598L155.773 41.8967L151.793 44.7228C151.793 44.7228 153.698 47.2377 153.136 48.4662C152.573 49.691 151.135 50.3379 151.135 50.3379L152.774 53.1915L158.92 52.558L158.971 52.5495L163.891 59.1025C164.056 59.3857 164.42 59.4785 164.706 59.3161C164.988 59.1501 165.084 58.7864 164.918 58.5008L161.407 52.2492L161.492 52.2383L166.258 51.7806L166.329 51.7397L171.417 58.3843C171.572 58.6747 171.933 58.7815 172.224 58.6284C172.511 58.474 172.621 58.1139 172.465 57.8228L168.64 50.4081L168.705 50.3727L170.339 49.4396L177.723 59.9825L178.166 60.6801C178.215 60.7722 178.285 60.8418 178.365 60.8979L178.379 60.9205L178.391 60.9132C178.588 61.0408 178.84 61.07 179.065 60.9517C179.386 60.7789 179.51 60.378 179.336 60.0564L175.102 51.8428L173.922 49.3688C173.922 49.3688 173.662 47.2823 174.477 46.2283C175.848 44.4604 177.312 44.7082 177.312 44.7082C177.312 44.7082 177.509 42.6272 178.469 40.3661L183.584 48.4192C183.741 48.7109 184.102 48.8165 184.393 48.6627C184.678 48.5107 184.788 48.1507 184.636 47.8602ZM153.378 50.6607L155.074 49.3261L163.776 47.5209L164.841 49.1381L153.378 50.6607Z" fill="#f97316"/>
</g>
<g clip-path="url(#clip3_3_599)">
<path d="M203.388 12.1842V48.8646H199.132V12.1842H203.388ZM238.117 33.231V12.1842H242.097V48.8646H237.224L217.181 18.0936H216.993C217.25 21.8274 217.379 25.135 217.379 28.0162V48.8646H213.454V12.1842H218.272L238.249 42.8449H238.448C238.169 38.0306 238.058 34.826 238.117 33.231ZM267.874 15.4807C263.846 15.4807 260.663 16.8257 258.326 19.5158C255.996 22.2133 254.831 25.9251 254.831 30.6512C254.831 35.3773 255.956 39.0486 258.205 41.6652C260.454 44.2745 263.659 45.5791 267.819 45.5791C270.421 45.5791 273.346 45.1234 276.595 44.212V47.9495C274.052 48.8977 270.913 49.3718 267.179 49.3718C261.77 49.3718 257.598 47.7364 254.666 44.4656C251.733 41.1581 250.267 36.4945 250.267 30.4748C250.245 27.6817 250.649 25.1129 251.48 22.7682C252.303 20.4162 253.475 18.4207 254.997 16.7816C256.525 15.1499 258.392 13.882 260.597 12.978C262.81 12.0813 265.254 11.6403 267.929 11.655C271.81 11.655 275.172 12.3606 278.017 13.7718L276.209 17.4321C273.475 16.1311 270.696 15.4807 267.874 15.4807Z" fill="#f97316"/>
</g>
</g>
<defs>
<clipPath id="clip0_3_599">
<rect width="277.06" height="61.0264" fill="white" transform="translate(0.969849)"/>
</clipPath>
<clipPath id="clip1_3_599">
<rect width="135.758" height="37.7172" fill="white" transform="translate(0.969849 11.6546)"/>
</clipPath>
<clipPath id="clip2_3_599">
<rect width="33.569" height="61.0264" fill="white" transform="translate(151.135)"/>
</clipPath>
<clipPath id="clip3_3_599">
<rect width="78.9177" height="37.7172" fill="white" transform="translate(199.112 11.6546)"/>
</clipPath>
</defs>
</svg>
